<?xml version="1.0" standalone="no"?>
<!DOCTYPE svg PUBLIC "-//W3C//DTD SVG 20010904//EN"
 "http://www.w3.org/TR/2001/REC-SVG-20010904/DTD/svg10.dtd">
<svg version="1.0" xmlns="http://www.w3.org/2000/svg"
 width="430.000000pt" height="430.000000pt" viewBox="0 0 430.000000 430.000000"
 preserveAspectRatio="xMidYMid meet">
<metadata>
Created by potrace 1.14, written by Peter Selinger 2001-2017
</metadata>
<g transform="translate(0.000000,430.000000) scale(0.100000,-0.100000)"
fill="#000000" stroke="none">
<path d="M2105 3639 c-22 -11 -143 -69 -269 -129 -125 -61 -229 -110 -231
-110 -1 0 -76 -35 -166 -79 -90 -43 -360 -172 -599 -286 -746 -356 -764 -365
-754 -374 5 -5 162 -82 349 -172 382 -181 370 -176 1140 -544 l560 -267 40 15
c22 8 319 149 660 312 341 163 662 316 713 340 l92 44 0 -460 0 -459 75 0 75
0 2 497 3 497 204 98 c112 53 206 99 209 102 2 3 -15 14 -39 25 -24 10 -111
51 -194 91 -82 40 -190 91 -240 115 -49 23 -247 118 -440 210 -310 148 -508
243 -900 430 -60 29 -141 68 -180 87 l-70 35 -40 -18z"/>
<path d="M860 1571 l0 -470 55 -60 c100 -107 312 -225 541 -300 454 -149 927
-148 1381 4 262 87 495 225 565 334 l28 45 0 458 c0 252 -4 458 -8 458 -5 0
-184 -84 -398 -186 -214 -103 -429 -206 -479 -229 -49 -23 -161 -77 -248 -118
l-157 -76 -193 94 c-303 147 -1077 515 -1082 515 -3 0 -5 -211 -5 -469z"/>
</g>
</svg>
